<svg xmlns="http://www.w3.org/2000/svg" xml:space="preserve" x="0" y="0" style="enable-background:new 0 0 24 24" version="1.1" viewBox="0 0 24 24"><style type="text/css">.st0{display:none}.st1{display:inline;fill:none}.st2{fill:none;stroke:#000;stroke-miterlimit:10}.st2,.st3,.st4{display:inline}.st4{fill:#070707}.st5{fill:none}.st6{fill:#020202}.st7,.st8{fill:none;stroke:#000;stroke-miterlimit:10}.st8{stroke:#fff}.st9{fill:#55acee}.st10{fill:#f1f2f2}.st11{fill:#007ab9}.st12{font-family:&quot;Roboto-Regular&quot;}.st13{font-size:12px}</style><g id="Layer_1" class="st0"><path id="Rectangle" d="M-3.8-1.8h29.6v29.6H-3.8z" class="st1"/><path id="Rectangle-3" d="M19.6 6.9V19c0 1.2-1.1 2.2-2.5 2.2h-11c-1.4 0-2.5-1-2.5-2.2V4.4" class="st2"/><path id="Path-4" d="M13.6 14.4c.2-.2.6-.2.9 0 .2.2.2.6 0 .9L12 17.8c-.2.2-.6.2-.9 0l-2.5-2.5c-.2-.2-.2-.6 0-.9.2-.2.6-.2.9 0l2 2 2.1-2z" class="st3"/><path id="Path-3" d="M11 9.9c0-.3.3-.6.6-.6s.6.3.6.6v6.8c0 .3-.3.6-.6.6s-.6-.3-.6-.6V9.9z" class="st4"/><path d="M20.2 6.7H6.6c-1.7 0-3-1-3-2.3 0-1.3 1.4-2.3 3-2.3h13.6" class="st2"/></g><g id="Layer_2" class="st0"><g id="Page-1" class="st3"><g id="library-new" transform="translate(-659 -3768)"><g id="UI_x2F_Icons_x2F_Further-research_x2F_Videos" transform="translate(659 3768)"><g><path id="new-car" d="M-.1.1h24v24h-24z" class="st5"/><g id="Group" transform="translate(2 3)"><path id="Shape" d="M6.9 4.1v7l6-3.5z"/><path id="Shape_1_" d="M.4 1.1v16-16zm12 14.5v-2h1v2h-1z"/><path id="Shape_2_" d="M18.9.1H.9c-.6 0-1 .4-1 1v16c0 .6.4 1 1 1h18c.6 0 1-.4 1-1v-16c0-.6-.4-1-1-1zm-18 14v-13h18v13h-5v-1h-2v1H.9zm11 2h2v-1h5v2H.9v-2h11v1z"/></g></g></g></g></g></g><g id="Layer_3" class="st0"><g id="Page-1_1_" class="st3"><g id="library-new_1_" transform="translate(-170 -3190)"><g id="UI_x2F_Icons_x2F_Used-cars" transform="translate(170 3190)"><g><path id="new-car_1_" d="M-.4-.5h24v24h-24z" class="st5"/><g id="used-car" transform="translate(2 2)"><path id="Shape_5_" d="m1.8 11.6.2.8c.2.7 0 1.3-.5 1.8l-.9.8-.1 2.9 2.8.4 8.3-6.9.5.2c1.9.8 4.1.6 5.7-.7 2.3-2 2.5-5.6.5-8s-5.7-2.9-8-1C8.6 3 8 5.3 8.6 7.5l.2.5-4.4 3.7c-.5.4-1.1.5-1.7.2l-.9-.3zm6-3.9C7 5.3 7.7 2.6 9.7 1c2.7-2.3 6.8-1.8 9.2 1.1s2.2 7-.5 9.3c-1.9 1.6-4.4 1.8-6.6.9l-7.9 6.6c-.2.1-.4.1-.6.1l-2.8-.4c-.5-.1-.8-.5-.8-1l.1-2.9c0-.2.1-.5.3-.6l.9-.8c.2-.2.3-.5.3-.9l-.3-.9c-.1-.4.1-.9.5-.9H2l1 .4c.3.1.6.1.9-.1l3.9-3.2z"/><path id="Shape_4_" d="m3.7 14.2 5.2-4.3.5.6-5.2 4.3z"/><path id="Shape_3_" d="M14.9 5.1c.5.6.4 1.4-.1 1.9s-1.4.4-1.8-.2c-.5-.6-.4-1.4.1-1.9s1.3-.4 1.8.2z"/></g></g></g></g></g></g><g id="Layer_4" class="st0"><g id="library-new_2_" class="st3" transform="translate(-270 -3188)"><g id="UI_x2F_Icons_x2F_Used-cars_1_" transform="translate(270 3188)"><g id="UI_x2F_Icons_x2F_News"><path id="news" d="M0 0h24v24H0z" class="st5"/><g id="Group-10" transform="translate(2 2)"><path id="Rectangle-2" d="M3 1c-1.1 0-2 .9-2 2v14c0 1.1.9 2 2 2h14c1.1 0 2-.9 2-2V3c0-1.1-.9-2-2-2H3zm0-1h14c1.7 0 3 1.3 3 3v14c0 1.7-1.3 3-3 3H3c-1.7 0-3-1.3-3-3V3c0-1.7 1.3-3 3-3z"/><path id="Rectangle-4" d="M10 6h7v1h-7z"/><path id="Rectangle-9" d="M4 4h4v4H4z"/><path id="Rectangle-4-Copy" d="M4 11h13v1H4z"/><path id="Rectangle-4-Copy-2" d="M4 15h10v1H4z"/></g></g></g></g></g><g id="Layer_5" class="st0"><g id="Page-1_2_" class="st3"><g id="library-new_3_" transform="translate(-207 -3188)"><g id="UI_x2F_Icons_x2F_Sell-cars" transform="translate(207 3188)"><g><path id="sell-car" d="M0 .1h24v24H0z" class="st5"/><g id="Group-8" transform="translate(1 2)"><path id="Rectangle-8" d="M4 1.1v14.6l3 3 2-2 2 2 2-2 2.3 1.9 2.7-2.9V1.1H4zm-1-1h16v16L15.4 20l-2.3-2-2.1 2-2-2-2 2-4-4V.1z"/><path id="Path" d="M19 7.1v-1h2v-5h-2v-1h2c.6 0 1 .4 1 1v5c0 .6-.4 1-1 1h-2z"/><path id="Path_1_" d="M3 1.1H1v5h2v1H1c-.6 0-1-.4-1-1v-5c0-.6.4-1 1-1h2v1z"/><path id="_x60_" d="M7.6 4.1H14l-.6.9h-1.7c.2.3.4.6.5 1H14c-.4.7-.6 1-.6 1h-1.2c0 .3-.2.7-.4 1.1-.4.4-.7.7-1 .9-.6.3-1.2.4-1.8.4 0 0 1.3 1.6 3.8 4.5h-1.7C8.6 11 7.4 9.6 7.4 9.5v-.8h.8c1.4 0 2.3-.5 2.6-1.4.1-.1.1-.3.1-.4H7l.6-.9h3c-.2-.3-.5-.6-1-.8-.3-.1-.6-.2-.9-.2H7l.6-.9z"/></g></g></g></g></g></g><g id="Layer_6" class="st0"><g id="Trucks-02-Copy" class="st3"><g id="Group_1_" transform="translate(4.5 7)"><path id="Path-30" d="M15.7 13.5V6.6l-1.6-7.8c-2.9-.4-5.1-.6-6.7-.6-1.5 0-3.8.2-6.7.6L-.8 6.5v6.9l16.5.1zm-17.3.3V6.4L0-1.9h.3c3.1-.4 5.5-.6 7.1-.6 1.6 0 4 .2 7 .6h.3l1.7 8.4V14.4l-18-.1v-.5z"/><path id="Path-33" d="M1.5 5.5h11.8l-1-4.9C10.1.3 8.5.1 7.4.1c-1.1 0-2.8.2-5 .5l-.9 4.9zM1.7 0H2c2.4-.4 4.2-.6 5.4-.6 1.2 0 3 .2 5.3.6h.3l1.3 6.4H.6L1.7 0z"/><path id="Rectangle_5_" d="M1.1 9.8c-.2 0-.4.2-.4.4s.2.4.4.4h2.4c.2 0 .4-.2.4-.4s-.2-.4-.4-.4H1.1zm0-.8h2.4c.7 0 1.2.5 1.2 1.2s-.5 1.2-1.2 1.2H1.1c-.7 0-1.2-.5-1.2-1.2S.4 9 1.1 9z"/><path id="Rectangle_1_" d="M11.5 9.8c-.2 0-.4.2-.4.4s.2.4.4.4h2.4c.2 0 .4-.2.4-.4s-.2-.4-.4-.4h-2.4zm0-.8h2.4c.7 0 1.2.5 1.2 1.2s-.5 1.2-1.2 1.2h-2.4c-.7 0-1.2-.5-1.2-1.2S10.8 9 11.5 9z"/><path id="Rectangle_2_" d="M5.5 8.2h4V9h-4z"/><path id="Rectangle_3_" d="M5.5 9.8h4v.8h-4z"/><path id="Rectangle_4_" d="M5.5 11.4h4v.8h-4z"/><path id="Path-35" d="M3 15.8v-1.2h.8v2H-1v-2h.8v1.2z"/><path id="Path-35_1_" d="M15 15.8v-1.2h.8v2H11v-2h.8v1.2z"/></g><path id="Path-34" d="M22.8 16H22V2.4c0-.7-.5-1.2-1.2-1.2H3.2c-.7 0-1.2.5-1.2 1.2V16h-.8V2.4c0-1.1.9-2 2-2h17.6c1.1 0 2 .9 2 2V16z"/></g></g><g id="Layer_7" class="st0"><g id="Page-1_3_" class="st3"><g id="Artboard" transform="translate(-118 -17)"><g id="bike-exchange-copy" transform="translate(106 11)"><g id="Group_2_"><g id="Group-2" transform="translate(12 6)"><g id="Group_3_" transform="translate(.917 3.483)"><path id="Path-30_1_" d="m3.2 16.4 15.8.1V9.9l-1.5-7.5c-2.8-.4-4.9-.6-6.4-.6s-3.6.2-6.4.6L3.2 9.9v6.5zM2.1 9.8v-.1l1.6-8.3.4-.1c3.1-.4 5.4-.6 7-.6 1.6 0 3.9.2 6.9.6l.4.1 1.7 8.3V17.6h-18V9.8z"/><path id="Rectangle_8_" d="M4 13.4h3.9v1.2H4z"/><path id="Rectangle_7_" d="M14 13.4h3.9v1.2H14z"/><path id="Path-35_3_" d="M7.4 18.7v-.9h1.1v2.1H2.6v-2.1h1.2v.9z"/><path id="Path-35_2_" d="M19.2 18.7v-.9h1.1v2.1h-5.9v-2.1h1.2v.9z"/></g><path id="Path-34_1_" d="M22.9 15.7h-1.2V2.4c0-.5-.4-1-1-1H3.4c-.5 0-1 .4-1 1v13.4H1.3V2.4c0-1.2 1-2.2 2.2-2.2h17.3c1.2 0 2.2 1 2.2 2.2v13.3z"/><path id="Rectangle_6_" d="M5 12.6h14.1v1.2H5z"/></g></g></g></g></g></g><g id="Layer_8" class="st0"><g id="Page-1_4_" class="st3"><g id="Artboard_1_" transform="translate(-118 -16)"><g id="bike-exchange-copy_1_" transform="translate(106 11)"><g id="Group_4_"><g id="Group-2_1_" transform="translate(12 5)"><g id="Group_5_" transform="translate(.917 4.483)"><path id="Path-30_2_" d="m3.8 14.9 14.7.1V8.8l-1.4-7c-2.6-.4-4.6-.5-5.9-.5-1.4 0-3.4.2-6 .5l-1.3 7v6.1zM2.7 8.7v-.1L4.2.8l.4-.1C7.5.3 9.7.1 11.1.1c1.5 0 3.6.2 6.5.6l.4.1 1.6 7.8V16l-16.9-.1V8.7z" class="st6"/><path id="Rectangle_11_" d="M4.5 12.1h3.7v1.1H4.5z" class="st6"/><path id="Rectangle_10_" d="M5.1 8h12v1.1h-12z" class="st6"/><path id="Rectangle_9_" d="M13.8 12.1h3.7v1.1h-3.7z" class="st6"/><path id="Rectangle-6" d="M4.5 15.9v.6c0 .5.4 1 1 1h1c.5 0 1-.4 1-1v-.6h-3zm-1-1h4.8v1.5c0 1.1-.9 1.9-1.9 1.9h-1c-1.1 0-1.9-.9-1.9-1.9v-1.5z" class="st6"/><path id="Rectangle-6-Copy" d="M14.6 15.9v.6c0 .5.4 1 1 1h1c.5 0 1-.4 1-1v-.6h-3zm-1-1h4.8v1.5c0 1.1-.9 1.9-1.9 1.9h-1c-1.1 0-1.9-.9-1.9-1.9v-1.5z" class="st6"/></g><path id="Path-2" d="M3 15.5v-12C3 2.7 3.7 2 4.5 2h15.1c.8 0 1.5.7 1.5 1.5v12h1v-12C22.1 2.1 21 1 19.6 1H4.5C3.1.9 2 2.1 2 3.4v12h1z" class="st6"/></g></g></g></g></g><g id="Page-1_5_" class="st3"><g id="Artboard_2_" transform="translate(-118 -16)"><g id="bike-exchange-copy_2_" transform="translate(106 11)"><g id="Group_6_"><g id="Group-2_2_" transform="translate(12 5)"><g id="Group_7_" transform="translate(.917 4.483)"><path id="Path-30_3_" d="m3.8 14.9 14.7.1V8.8l-1.4-7c-2.6-.4-4.6-.5-5.9-.5-1.4 0-3.4.2-6 .5l-1.3 7v6.1zM2.7 8.7v-.1L4.2.8l.4-.1C7.5.3 9.7.1 11.1.1c1.5 0 3.6.2 6.5.6l.4.1 1.6 7.8V16l-16.9-.1V8.7z" class="st6"/><path id="Rectangle_14_" d="M4.5 12.1h3.7v1.1H4.5z" class="st6"/><path id="Rectangle_13_" d="M5.1 8h12v1.1h-12z" class="st6"/><path id="Rectangle_12_" d="M13.8 12.1h3.7v1.1h-3.7z" class="st6"/><path id="Rectangle-6_1_" d="M4.5 15.9v.6c0 .5.4 1 1 1h1c.5 0 1-.4 1-1v-.6h-3zm-1-1h4.8v1.5c0 1.1-.9 1.9-1.9 1.9h-1c-1.1 0-1.9-.9-1.9-1.9v-1.5z" class="st6"/><path id="Rectangle-6-Copy_1_" d="M14.6 15.9v.6c0 .5.4 1 1 1h1c.5 0 1-.4 1-1v-.6h-3zm-1-1h4.8v1.5c0 1.1-.9 1.9-1.9 1.9h-1c-1.1 0-1.9-.9-1.9-1.9v-1.5z" class="st6"/></g><path id="Path-2_1_" d="M3 15.5v-12C3 2.7 3.7 2 4.5 2h15.1c.8 0 1.5.7 1.5 1.5v12h1v-12C22.1 2.1 21 1 19.6 1H4.5C3.1.9 2 2.1 2 3.4v12h1z" class="st6"/></g></g></g></g></g></g><g id="Layer_9"><g id="Page-1_7_"><g id="Artboard_4_" transform="translate(-118 -16)"><g id="bike-exchange-copy_4_" transform="translate(106 11)"><g id="Group_10_"><g id="Group-2_4_" transform="translate(12 5)"><g id="Group_11_" transform="translate(.917 4.483)"><path id="Path-30_5_" d="m3.8 15.1 14.7.1V9l-1.4-7c-2.6-.4-4.6-.5-5.9-.5-1.4 0-3.4.2-6 .5L3.8 9v6.1zM2.7 9v-.1l1.5-7.8.4-.1C7.5.6 9.7.4 11.1.4c1.5 0 3.6.2 6.5.6l.4.1 1.6 7.8V16.3l-16.9-.1V9z" class="st6"/><path id="Rectangle_20_" d="M4.5 12.3h3.7v1.1H4.5z" class="st6"/><path id="Rectangle_19_" d="M5.1 8.3h12v1.1h-12z" class="st6"/><path id="Rectangle_18_" d="M13.8 12.3h3.7v1.1h-3.7z" class="st6"/><path id="Rectangle-6_3_" d="M4.5 16.2v.6c0 .5.4 1 1 1h1c.5 0 1-.4 1-1v-.6h-3zm-1-1h4.8v1.5c0 1.1-.9 1.9-1.9 1.9h-1c-1.1 0-1.9-.9-1.9-1.9v-1.5z" class="st6"/><path id="Rectangle-6-Copy_3_" d="M14.6 16.2v.6c0 .5.4 1 1 1h1c.5 0 1-.4 1-1v-.6h-3zm-1-1h4.8v1.5c0 1.1-.9 1.9-1.9 1.9h-1c-1.1 0-1.9-.9-1.9-1.9v-1.5z" class="st6"/></g><path id="Path-2_3_" d="M3 15.7v-12c0-.8.7-1.5 1.5-1.5h15.1c.8 0 1.5.7 1.5 1.5v12h1v-12c0-1.4-1.1-2.5-2.5-2.5H4.5C3.1 1.2 2 2.3 2 3.7v12h1z" class="st6"/></g></g></g></g></g><g id="Page-1_6_"><g id="Artboard_3_" transform="translate(-118 -16)"><g id="bike-exchange-copy_3_" transform="translate(106 11)"><g id="Group_8_"><g id="Group-2_3_" transform="translate(12 5)"><g id="Group_9_" transform="translate(.917 4.483)"><path id="Path-30_4_" d="m3.8 15.1 14.7.1V9l-1.4-7c-2.6-.4-4.6-.5-5.9-.5-1.4 0-3.4.2-6 .5L3.8 9v6.1zM2.7 9v-.1l1.5-7.8.4-.1C7.5.6 9.7.4 11.1.4c1.5 0 3.6.2 6.5.6l.4.1 1.6 7.8V16.3l-16.9-.1V9z" class="st6"/><path id="Rectangle_17_" d="M4.5 12.3h3.7v1.1H4.5z" class="st6"/><path id="Rectangle_16_" d="M5.1 8.3h12v1.1h-12z" class="st6"/><path id="Rectangle_15_" d="M13.8 12.3h3.7v1.1h-3.7z" class="st6"/><path id="Rectangle-6_2_" d="M4.5 16.2v.6c0 .5.4 1 1 1h1c.5 0 1-.4 1-1v-.6h-3zm-1-1h4.8v1.5c0 1.1-.9 1.9-1.9 1.9h-1c-1.1 0-1.9-.9-1.9-1.9v-1.5z" class="st6"/><path id="Rectangle-6-Copy_2_" d="M14.6 16.2v.6c0 .5.4 1 1 1h1c.5 0 1-.4 1-1v-.6h-3zm-1-1h4.8v1.5c0 1.1-.9 1.9-1.9 1.9h-1c-1.1 0-1.9-.9-1.9-1.9v-1.5z" class="st6"/></g><path id="Path-2_2_" d="M3 15.7v-12c0-.8.7-1.5 1.5-1.5h15.1c.8 0 1.5.7 1.5 1.5v12h1v-12c0-1.4-1.1-2.5-2.5-2.5H4.5C3.1 1.2 2 2.3 2 3.7v12h1z" class="st6"/></g></g></g></g></g><path d="M12.1 1.5v18.7" class="st7"/><path d="M13.1.5v20.4" class="st8"/></g><g id="Layer_11" class="st0"><g class="st3"><circle cx="12.1" cy="12.1" r="10.2" class="st9"/><g><path d="M18.4 9.2c-.4.2-.9.3-1.4.4.5-.3.9-.8 1.1-1.4-.5.3-1 .5-1.6.6-.4-.5-1.1-.8-1.8-.8-1.4 0-2.4 1.1-2.4 2.4 0 .2 0 .4.1.6-2-.1-3.8-1.1-5-2.6-.3.5-.5.9-.5 1.3 0 .8.4 1.6 1.1 2-.4 0-.8-.1-1.1-.3 0 1.2.8 2.2 2 2.4-.2.2-.4.2-.7.2h-.5c.3 1 1.2 1.7 2.3 1.7-.8.7-1.9 1-3 1h-.6c1.1.7 2.4 1.1 3.7 1.1 4.5 0 7-3.7 7-7v-.3c.5-.4.9-.8 1.3-1.3z" class="st10"/></g></g></g><g id="Layer_12" class="st0"><g class="st3"><circle cx="12.1" cy="12.1" r="9.9" class="st11"/><g><path d="M18 12.9V17h-2.4v-3.8c0-1-.3-1.6-1.2-1.6-.7 0-1 .4-1.2.9-.1.2-.1.4-.1.6v4h-2.4V10h2.4v1c.3-.5.9-1.2 2.1-1.2 1.6-.1 2.8.9 2.8 3.1zM8.3 6.4C7.5 6.4 7 7 7 7.7c0 .7.5 1.2 1.3 1.2s1.3-.5 1.3-1.2-.5-1.3-1.3-1.3zM7.1 17h2.4V9.9H7.1V17z" class="st10"/></g></g></g><g id="Layer_10" class="st0"><path d="M2.3 7v7.9c0 1.5 1.2 2.7 2.7 2.7h6.3l5.7 3c.1.1.2 0 .3 0 .1-.1.1-.2.1-.3l-.5-2.7h.8c1.5 0 2.7-1.2 2.7-2.7V7c0-1.5-1.2-2.7-2.7-2.7H5.1C3.6 4.3 2.3 5.5 2.3 7z" class="st2"/><text class="st3 st12 st13" transform="translate(9.25 14.89)">?</text></g></svg>