<svg xmlns="http://www.w3.org/2000/svg" width="20" height="20" fill="none" viewBox="0 0 24 24"><path fill="#fff" d="M0 0h24v24H0z"/><path fill="#a39da9" fill-rule="evenodd" d="M20.355 17.184h-.022a.987.987 0 0 1-.065-.007l-16.523-.002a1.207 1.207 0 0 1-.078.009.352.352 0 0 1-.053-.002 1.051 1.051 0 0 0-.924 1.043v2.038a1.051 1.051 0 0 0 1.05 1.05h16.52a1.051 1.051 0 0 0 1.05-1.05v-2.038a1.05 1.05 0 0 0-.922-1.042.358.358 0 0 1-.033.001ZM2 12.011A10 10 0 0 0 3.12 16.6 1.741 1.741 0 0 0 2 18.225v2.038a1.741 1.741 0 0 0 1.74 1.74h16.52a1.741 1.741 0 0 0 1.74-1.74v-2.038a1.741 1.741 0 0 0-1.12-1.625A10 10 0 1 0 2 12.01Zm7.42 4.474H3.84a9.31 9.31 0 1 1 16.318 0h-5.583a5.18 5.18 0 0 0 2.596-4.483 5.173 5.173 0 1 0-7.753 4.483Zm4.295-.341c-.541.224-1.12.34-1.7.341h-.03a4.49 4.49 0 0 1-3.155-1.313 4.483 4.483 0 1 1 4.885.972Zm6.063 3.665c.154.079.325.121.498.124a.345.345 0 0 0 0-.69c-.162 0-.23-.067-.384-.233a1.099 1.099 0 0 0-1.782 0c-.154.166-.223.234-.385.234-.16 0-.23-.068-.383-.234a1.097 1.097 0 0 0-1.78 0c-.154.166-.223.234-.383.234-.161 0-.23-.067-.383-.234a1.097 1.097 0 0 0-1.78 0c-.154.166-.223.234-.383.234-.161 0-.23-.067-.384-.234a1.097 1.097 0 0 0-1.78 0c-.153.166-.222.234-.383.234-.16 0-.23-.067-.383-.234a1.096 1.096 0 0 0-1.779 0c-.153.166-.222.234-.383.234-.16 0-.23-.067-.383-.234a1.096 1.096 0 0 0-1.78 0c-.152.166-.22.234-.381.234-.16 0-.23-.067-.383-.234a1.134 1.134 0 0 0-.89-.456.345.345 0 1 0 0 .69c.16 0 .23.067.383.233a1.134 1.134 0 0 0 .89.456 1.137 1.137 0 0 0 .889-.456c.153-.166.221-.233.382-.233s.23.067.383.233a1.095 1.095 0 0 0 1.78 0c.153-.166.222-.233.382-.233s.23.067.383.233a1.097 1.097 0 0 0 1.78 0c.153-.166.222-.233.383-.233s.23.067.383.234a1.095 1.095 0 0 0 1.78 0c.154-.167.223-.234.384-.234.16 0 .229.067.383.233a1.097 1.097 0 0 0 1.78 0c.153-.166.222-.233.383-.233.16 0 .23.067.383.234a1.098 1.098 0 0 0 1.78 0c.155-.167.224-.234.386-.234.161 0 .23.067.384.234.104.139.238.252.393.33Z" clip-rule="evenodd"/></svg>